<svg xmlns="http://www.w3.org/2000/svg" viewBox="0 0 78.38 83.6"><defs><style>.cls-1{fill:#afafaf;}.cls-1,.cls-2,.cls-3,.cls-4,.cls-8{stroke:#000;stroke-miterlimit:10;}.cls-1,.cls-2,.cls-3,.cls-4{stroke-linecap:round;stroke-width:2.5px;}.cls-2{fill:#efefef;}.cls-3,.cls-7{fill:#be1e2d;}.cls-4{fill:none;}.cls-5{fill:#f7941d;}.cls-6{fill:#00a79d;}.cls-8{stroke-width:1.3px;}</style></defs><g id="Layer_2" data-name="Layer 2"><g id="Layer_1-2" data-name="Layer 1"><path class="cls-1" d="M57.93,82.35H10.09a3.55,3.55,0,0,1-3.54-3.54V15.3a3.54,3.54,0,0,1,3.54-3.53H73.6a3.53,3.53,0,0,1,3.53,3.53V78.81a3.54,3.54,0,0,1-3.53,3.54H68.15"/><path class="cls-2" d="M1.25,40.25V10A3.53,3.53,0,0,1,4.78,6.47H68.29A3.54,3.54,0,0,1,71.83,10V73.51A3.54,3.54,0,0,1,68.29,77H4.78a3.53,3.53,0,0,1-3.53-3.53V49.33"/><path class="cls-3" d="M11,27.88H1.25V10A3.52,3.52,0,0,1,4.77,6.47H68.31A3.52,3.52,0,0,1,71.83,10V27.88H18.68"/><line class="cls-4" x1="10.96" y1="1.25" x2="10.96" y2="11.77"/><line class="cls-4" x1="27.46" y1="1.25" x2="27.46" y2="11.77"/><line class="cls-4" x1="45.14" y1="1.25" x2="45.14" y2="11.77"/><line class="cls-4" x1="60.66" y1="1.25" x2="60.66" y2="11.77"/><path class="cls-5" d="M38.18,59.41H35L35.63,57a1,1,0,0,1,1-.75,1,1,0,0,1,1,.75Z"/><path class="cls-6" d="M50.33,61.62H47.57l.54-2.1a.86.86,0,0,1,1.68,0Z"/><path class="cls-5" d="M46,42.67c0,6.23-4.48,13.56-9.38,13.56s-9.39-7.33-9.39-13.56,4.21-10.26,9.39-10.26S46,36.44,46,42.67Z"/><path class="cls-7" d="M26,63H23.46L24,61.07a.79.79,0,0,1,1.53,0Z"/><path class="cls-6" d="M49,38.15a8.19,8.19,0,0,0-3.53.79A12,12,0,0,1,46,42.67a17.13,17.13,0,0,1-3.79,10.39c1.51,3.25,4.06,5.8,6.76,5.8,4.26,0,8.16-6.37,8.16-11.79S53.45,38.15,49,38.15Z"/><path class="cls-7" d="M27.23,42.11a7.49,7.49,0,0,0-2.52-.43c-4.09,0-7.4,3.18-7.4,8.1s3.53,10.7,7.4,10.7c2.89,0,5.59-3.21,6.77-6.89a16.83,16.83,0,0,1-4.25-11.48Z"/><path class="cls-8" d="M57.29,43.77a.65.65,0,0,0-.82-.44.66.66,0,0,0-.44.83,10.13,10.13,0,0,1,.41,2.91c0,5.41-3.85,11.13-7.49,11.13h0c-2.12,0-4.44-2-6-5.05a17.89,17.89,0,0,0,3.68-10.48,13.09,13.09,0,0,0-.43-3.35,7.52,7.52,0,0,1,2.73-.5,7.13,7.13,0,0,1,5.77,2.79.67.67,0,0,0,.93.12.66.66,0,0,0,.12-.93A8.54,8.54,0,0,0,49,37.49a8.75,8.75,0,0,0-3.15.57,9.7,9.7,0,0,0-9.2-6.31,9.88,9.88,0,0,0-5,1.34.66.66,0,1,0,.67,1.14,8.69,8.69,0,0,1,4.36-1.16c5,0,8.72,4,8.72,9.6s-4.1,12.9-8.72,12.9h0c-4.62,0-8.72-7.21-8.72-12.9A10.13,10.13,0,0,1,30,36.12a.66.66,0,0,0-.09-.93.68.68,0,0,0-.94.09,11,11,0,0,0-2.38,6A8.13,8.13,0,0,0,24.71,41c-4.48,0-8.07,3.51-8.07,8.76a14,14,0,0,0,1.63,6.31.67.67,0,1,0,1.18-.62A12.63,12.63,0,0,1,18,49.78c0-4.31,2.84-7.44,6.74-7.44a7,7,0,0,1,1.84.25,17.74,17.74,0,0,0,4.18,11.16c-1.25,3.54-3.74,6.06-6,6.06a5.19,5.19,0,0,1-3.6-1.93.67.67,0,0,0-.94,0,.66.66,0,0,0,0,.94,7.27,7.27,0,0,0,3.17,2.15l-.48,1.89a.66.66,0,0,0,.64.82h1A2.5,2.5,0,0,1,24.24,67a3.84,3.84,0,0,0,0,5.4,2.49,2.49,0,0,1,0,3.53.66.66,0,0,0,.94.94,3.82,3.82,0,0,0,0-5.4,2.5,2.5,0,0,1,0-3.53A3.8,3.8,0,0,0,26,63.64h0a.66.66,0,0,0,.64-.82l-.49-1.89c2.5-.76,4.53-3.42,5.63-6.14A8.56,8.56,0,0,0,35,56.68c0,.1,0-.08-.66,2.56a.66.66,0,0,0,.64.83H36a3.92,3.92,0,0,0,1.11,2.16,2.66,2.66,0,0,1,.78,1.85,1.88,1.88,0,0,0-1.2-.42,1.92,1.92,0,0,0-.21,3.82,3.66,3.66,0,0,0,0,5.14,2.31,2.31,0,0,1,0,3.28.66.66,0,0,0,0,.94.68.68,0,0,0,.94,0,3.66,3.66,0,0,0,0-5.16,2.33,2.33,0,0,1,0-3.28,4,4,0,0,0,1.1-2.06,4,4,0,0,0,.68-2.23A4,4,0,0,0,38,61.29a2.59,2.59,0,0,1-.7-1.22h.88a.67.67,0,0,0,.65-.83c-.68-2.65-.63-2.46-.67-2.56A8.93,8.93,0,0,0,42,54.22c1.44,2.66,3.4,4.49,5.45,5.09,0,.09.08-.32-.55,2.15a.66.66,0,0,0,.64.82h.19a3.27,3.27,0,0,0,.74,3.48,1.93,1.93,0,0,1,0,2.72,3.57,3.57,0,0,0-1,1.83A3.56,3.56,0,0,0,48,74.79a2.22,2.22,0,0,1,.65,1.58.67.67,0,0,0,1.33,0,3.55,3.55,0,0,0-1-2.52,2.24,2.24,0,0,1-.65-1.37,1.73,1.73,0,0,0,1,.28,1.76,1.76,0,0,0,.36-3.48,3.25,3.25,0,0,0-.13-4.46,1.92,1.92,0,0,1-.17-2.54h1.06a.66.66,0,0,0,.64-.82l-.54-2.11a.06.06,0,0,1,0,0c4.14-1.23,7.35-7.23,7.35-12.24a11.11,11.11,0,0,0-.48-3.3Zm-33,18.55.28-1.09a.12.12,0,0,1,.23,0l.28,1.09ZM36.7,66.16a.58.58,0,0,1-.64-.68.6.6,0,0,1,.46-.49.59.59,0,0,1,.71.62.58.58,0,0,1-.53.55Zm-.83-7.42.41-1.59a.33.33,0,0,1,.64,0l.41,1.59ZM49.63,71.09a.42.42,0,0,1-.33.33.43.43,0,1,1,.33-.33ZM48.42,61l.33-1.28a.2.2,0,0,1,.39,0L49.47,61Z"/></g></g></svg>