<svg xmlns="http://www.w3.org/2000/svg" viewBox="0 0 70.11 84.86"><defs><style>.cls-1{fill:#bcbec0;}.cls-2{fill:#d1d3d4;}.cls-3{fill:#f6cc65;}.cls-4{fill:#854437;}</style></defs><g id="Layer_2" data-name="Layer 2"><g id="Layer_1-2" data-name="Layer 1"><path class="cls-1" d="M57.91,57.78a2.52,2.52,0,0,1-2.52-2.35c-.58-8.74,2.76-12.73,5.44-15.93,2.4-2.86,3.85-4.59,2.41-9.43-1.18-4-3.05-3.95-3.66-3.93-3.4.1-8.08,4.79-8.82,8A2.53,2.53,0,0,1,45.83,33C47,27.8,53.54,21.28,59.42,21.09c2.39-.07,6.68.81,8.67,7.55,2.2,7.43-.77,11-3.38,14.1-2.43,2.9-4.73,5.64-4.28,12.35a2.53,2.53,0,0,1-2.35,2.69Z"/><path class="cls-2" d="M46.61,83.61H17.13A15.86,15.86,0,0,1,2.4,61.84L12.39,37a19.06,19.06,0,0,0-1.92-17.8L6.18,12.86a.52.52,0,0,1,.43-.81H57.14a.52.52,0,0,1,.43.81l-4.29,6.32A19,19,0,0,0,51.36,37l10,24.86A15.86,15.86,0,0,1,46.61,83.61Z"/><path class="cls-3" d="M58.92,2.07l-26.52,36a.53.53,0,0,1-.84,0L4.83,2.07a.52.52,0,0,1,.41-.83H58.5A.52.52,0,0,1,58.92,2.07Z"/><path class="cls-4" d="M52.5,53H11.24a.53.53,0,0,0-.48.32L6.66,63.55A11.28,11.28,0,0,0,17.13,79H46.61A11.29,11.29,0,0,0,57.09,63.55L53,53.34A.53.53,0,0,0,52.5,53Z"/><path d="M69.29,28.28c-2.32-7.82-7.7-8.5-9.9-8.43a13.07,13.07,0,0,0-6.28,2.07,17.56,17.56,0,0,1,1.2-2l4.29-6.32a1.76,1.76,0,0,0-1.46-2.75H54l5.89-8A1.77,1.77,0,0,0,60.08,1a1.74,1.74,0,0,0-1.57-1H5.24A1.76,1.76,0,0,0,3.82,2.81l5.94,8H6.6a1.76,1.76,0,0,0-1.46,2.75l4.3,6.32a17.8,17.8,0,0,1,1.79,16.64l-1,2.53a1.24,1.24,0,0,0,2.31.92l1-2.52a20.26,20.26,0,0,0-2-19L8,13.29H11.6l19,25.53a1.76,1.76,0,0,0,1.42.71h0a1.77,1.77,0,0,0,1.42-.72l8.17-11.09a1.24,1.24,0,0,0-2-1.48L32,36.55,14.7,13.29H49.11L43.7,20.64a1.24,1.24,0,0,0,2,1.48l6.5-8.83h3.57l-3.52,5.19a20.27,20.27,0,0,0-2.87,16.46v0a20.71,20.71,0,0,0,.82,2.49l4.54,11.31,0,0,3.56,8.88,0,0,1.85,4.6a14.39,14.39,0,0,1,.54,9.31,1.24,1.24,0,0,0,2.4.66,16.87,16.87,0,0,0-.64-10.9L61,57.5a3.8,3.8,0,0,0,.73-2.5c-.42-6.21,1.62-8.64,4-11.46C68.34,40.34,71.68,36.36,69.29,28.28ZM57.08,2.49,54.73,5.68H9L6.68,2.49ZM12.85,10.81l-2-2.65h42L51,10.81Zm39,23.89a2.29,2.29,0,0,0,.08-.28c.62-2.7,4.83-7,7.65-7,.38,0,1.52,0,2.44,3,1.24,4.2.17,5.48-2.18,8.28a25.75,25.75,0,0,0-4.06,6l-3.31-8.22C52.27,35.92,52.07,35.31,51.89,34.7ZM59.14,53l-1.93-4.8a19.68,19.68,0,0,1,4.58-7.92c2.48-3,4.27-5.1,2.65-10.59-1-3.26-2.62-4.88-4.9-4.81-2.87.09-6.27,2.69-8.3,5.53a17.3,17.3,0,0,1,.38-4.25c2.54-2.37,5.38-3.77,7.85-3.84s5.76,1,7.43,6.65c2,6.8-.61,9.92-3.14,13C61.54,44.59,59.26,47.31,59.14,53Z"/><path d="M59.8,76.67a1.23,1.23,0,0,0-1.74.2,14.55,14.55,0,0,1-11.44,5.5H17.13A14.42,14.42,0,0,1,5,75.93,14.38,14.38,0,0,1,3.54,62.3L10.2,45.75a1.25,1.25,0,0,0-2.31-.93L1.24,61.37A17.12,17.12,0,0,0,17.13,84.86H46.62A17,17,0,0,0,60,78.42,1.24,1.24,0,0,0,59.8,76.67Z"/><path d="M21.37,39.25a1.24,1.24,0,0,0-1.62.69L15,51.78H11.24a1.75,1.75,0,0,0-1.64,1.1L5.5,63.08A12.53,12.53,0,0,0,17.13,80.27H46.62A12.52,12.52,0,0,0,58.24,63.08l-4.1-10.2a1.75,1.75,0,0,0-1.64-1.1H17.67l4.39-10.91A1.24,1.24,0,0,0,21.37,39.25ZM52,54.26,55.94,64a10,10,0,0,1-9.32,13.77H17.13A10,10,0,0,1,7.81,64l3.91-9.75H14L9.76,64.79a7.93,7.93,0,0,0,7.37,10.89,1.25,1.25,0,0,0,0-2.49,5.44,5.44,0,0,1-5.06-7.47l4.6-11.46Z"/><circle cx="23.58" cy="19.4" r="1.24"/><circle cx="29.31" cy="19.4" r="1.24"/><circle cx="35.04" cy="19.4" r="1.24"/><circle cx="29.31" cy="27.11" r="1.24"/><circle cx="35.04" cy="27.11" r="1.24"/><circle cx="40.76" cy="19.4" r="1.24"/><circle cx="20.73" cy="15.72" r="1.24"/><circle cx="26.45" cy="15.72" r="1.24"/><circle cx="32.18" cy="15.72" r="1.24"/><circle cx="37.91" cy="15.72" r="1.24"/><circle cx="26.45" cy="23.12" r="1.24"/><circle cx="32.18" cy="23.12" r="1.24"/><circle cx="32.18" cy="31.05" r="1.24"/><circle cx="37.91" cy="23.12" r="1.24"/><circle cx="43.64" cy="15.72" r="1.24"/></g></g></svg>