<svg xmlns="http://www.w3.org/2000/svg" viewBox="0 0 80.25 81.75"><defs><style>.cls-1{fill:#ffb655;}.cls-2{fill:none;stroke-miterlimit:10;}.cls-2,.cls-3,.cls-4,.cls-5,.cls-6{stroke:#000;stroke-linecap:round;stroke-width:2.5px;}.cls-3{fill:#ffa5b5;}.cls-3,.cls-4,.cls-5,.cls-6{stroke-linejoin:round;}.cls-4{fill:#ffdaaa;}.cls-5{fill:#ff0c38;}.cls-6{fill:#40a340;}</style></defs><g id="Layer_2" data-name="Layer 2"><g id="Layer_1-2" data-name="Layer 1"><path class="cls-1" d="M79,37.74V77.28a3.22,3.22,0,0,1-3.22,3.22H67.24V45.23a5.68,5.68,0,0,0-5.68-5.69H6.75A5.5,5.5,0,0,1,1.25,34h0a5.5,5.5,0,0,1,5.5-5.5H69.8A9.2,9.2,0,0,1,79,37.74Z"/><path class="cls-2" d="M21.81,28.54h48a9.2,9.2,0,0,1,9.2,9.2V77.28a3.22,3.22,0,0,1-3.22,3.22H67.24V45.23a5.68,5.68,0,0,0-5.68-5.69H6.75A5.5,5.5,0,0,1,1.25,34h0a5.5,5.5,0,0,1,5.5-5.5H14"/><path class="cls-3" d="M5.63,39.43H61.4a5.85,5.85,0,0,1,5.85,5.85v7.35a0,0,0,0,1,0,0H5.63a0,0,0,0,1,0,0V39.43A0,0,0,0,1,5.63,39.43Z"/><rect class="cls-4" x="5.63" y="52.63" width="61.61" height="14.55"/><path class="cls-3" d="M5.63,70V67.17H67.24V80.5H7.87a2.24,2.24,0,0,1-2.24-2.23V77.5"/><polygon class="cls-5" points="17.3 56.57 11.94 62.22 24.09 63.4 17.3 56.57"/><polygon class="cls-5" points="39.64 63.45 43.31 56.57 31.28 58.68 39.64 63.45"/><polygon class="cls-5" points="52.52 56.64 51.96 64.41 62.1 57.62 52.52 56.64"/><path class="cls-5" d="M53.92,25a29.08,29.08,0,0,1-3.24,1.16c-4.24,1.21-5.7.44-6.35-4.22a26.46,26.46,0,0,1-.24-4.27l.09-4.23A6.56,6.56,0,0,1,54.39,8.1l4.93,3.31a6.56,6.56,0,0,1-.78,11.34"/><ellipse cx="49.9" cy="13.16" rx="1.81" ry="0.85" transform="translate(16.43 52.44) rotate(-64.34)"/><ellipse cx="56.58" cy="17.61" rx="1.81" ry="0.85" transform="translate(11.54 56.11) rotate(-57.82)"/><ellipse cx="53.18" cy="15.48" rx="1.81" ry="0.85" transform="matrix(0.53, -0.85, 0.85, 0.53, 11.76, 52.25)"/><ellipse cx="51.98" cy="21.02" rx="1.81" ry="0.85" transform="translate(6.5 53.82) rotate(-57.82)"/><ellipse cx="48.46" cy="18.81" rx="1.81" ry="0.85" transform="translate(6.73 49.81) rotate(-57.82)"/><path class="cls-6" d="M57.26,9.52S60.6,4.6,65.52,8.23C65.52,8.23,62.24,13.52,57.26,9.52Z"/><path class="cls-6" d="M57.26,9.52S52.36,6.16,56,1.25C56,1.25,61.28,4.55,57.26,9.52Z"/><path class="cls-5" d="M40.72,16.89A25.11,25.11,0,0,1,42.17,20c1.59,4.11,1,5.64-3.62,6.71a26.33,26.33,0,0,1-4.23.63l-4.22.3A6.56,6.56,0,0,1,23.88,18l2.84-5.21a6.55,6.55,0,0,1,11.36-.26"/><ellipse cx="29.33" cy="21.97" rx="0.85" ry="1.81" transform="translate(-1.49 41.79) rotate(-69.59)"/><ellipse cx="33.15" cy="14.91" rx="0.85" ry="1.81" transform="translate(4.84 37.71) rotate(-63.07)"/><ellipse cx="31.33" cy="18.49" rx="0.85" ry="1.81" transform="translate(0.66 38.05) rotate(-63.07)"/><ellipse cx="36.97" cy="19.18" rx="0.85" ry="1.81" transform="translate(3.13 43.45) rotate(-63.07)"/><ellipse cx="35.08" cy="22.88" rx="0.85" ry="1.81" transform="translate(-1.21 43.8) rotate(-63.07)"/><path class="cls-6" d="M25,15s-5.2-2.88-2-8.11C23,6.87,28.56,9.64,25,15Z"/><path class="cls-6" d="M25,15s-2.9,5.18-8.12,2C16.91,17,19.71,11.42,25,15Z"/></g></g></svg>