<svg xmlns="http://www.w3.org/2000/svg" viewBox="0 0 79.82 79.5"><defs><style>.cls-1{fill:#fbcc34;}.cls-1,.cls-2,.cls-3,.cls-4,.cls-5{stroke:#000;stroke-linecap:round;stroke-linejoin:round;stroke-width:2.5px;}.cls-2{fill:#fff;}.cls-3{fill:#87431d;}.cls-4{fill:#ff485a;}.cls-5{fill:#f58f25;}</style></defs><g id="Layer_2" data-name="Layer 2"><g id="Layer_1-2" data-name="Layer 1"><path class="cls-1" d="M43.49,22.08a7.44,7.44,0,0,1-1.94-5V8.34H31.18V15.9a11.54,11.54,0,0,1-2.64,7.31l-1.29,1.56a8.63,8.63,0,0,0-2,5.5V70.32H48.11V30.5a8.61,8.61,0,0,0-2.24-5.8Z"/><rect class="cls-2" x="25.26" y="32.29" width="22.85" height="24.12"/><polyline class="cls-3" points="5.11 78.25 1.25 78.25 1.25 70.95 78.57 70.95 78.57 78.25 12.01 78.25"/><path class="cls-4" d="M76.45,44.35V40.24a7,7,0,0,0-1.31-4.09l-3.93-5.51a7.69,7.69,0,0,1-1.42-4.44V24.41H59.85v1.31A9.09,9.09,0,0,1,58.18,31l-3.7,5.2a7.09,7.09,0,0,0-1.3,4.08V71H76.45V52"/><rect class="cls-5" x="30.13" y="1.25" width="12.8" height="7.09"/><rect class="cls-5" x="58.26" y="17.33" width="13.01" height="7.09"/><rect class="cls-5" x="53.18" y="57.52" width="23.27" height="6.03"/><circle class="cls-2" cx="64.85" cy="43.19" r="6.74"/><rect class="cls-5" x="3.21" y="28.01" width="17.61" height="9.97"/><rect class="cls-2" x="5.11" y="37.98" width="14.28" height="28.11"/><rect class="cls-5" x="3.21" y="66.09" width="18.03" height="4.87"/><rect class="cls-1" x="5.11" y="45.04" width="14.28" height="13.59"/></g></g></svg>