<svg xmlns="http://www.w3.org/2000/svg" viewBox="0 0 84.73 77.29"><defs><style>.cls-1{fill:#82d1d1;}.cls-2{fill:#b2b6bb;}.cls-3{fill:none;}.cls-3,.cls-4{stroke:#000;stroke-linecap:round;stroke-linejoin:round;stroke-width:2.61px;}.cls-4{fill:#c27b48;}</style></defs><g id="Layer_2" data-name="Layer 2"><g id="Layer_1-2" data-name="Layer 1"><path class="cls-1" d="M7,26.62H61.76a0,0,0,0,1,0,0V49.77A17.75,17.75,0,0,1,44,67.52H24.55A17.51,17.51,0,0,1,7,50V26.62A0,0,0,0,1,7,26.62Z"/><path class="cls-1" d="M72.1,26.62H61.76V50.27H72.1A11.32,11.32,0,0,0,83.42,39v-1A11.32,11.32,0,0,0,72.1,26.62ZM78,38.55a5.6,5.6,0,0,1-5.6,5.6H61.76V32.45H72.43a5.6,5.6,0,0,1,5.6,5.6Z"/><path class="cls-2" d="M1.31,67.52h74a0,0,0,0,1,0,0v0A8.46,8.46,0,0,1,66.8,76h-57a8.46,8.46,0,0,1-8.46-8.46v0a0,0,0,0,1,0,0Z"/><path class="cls-3" d="M23.93,26.62H61.76V49.77A17.76,17.76,0,0,1,44,67.52H24.55A17.51,17.51,0,0,1,7,50V26.62h7.23"/><path class="cls-3" d="M72.1,26.62H61.76V50.27H72.1A11.32,11.32,0,0,0,83.42,39v-1A11.32,11.32,0,0,0,72.1,26.62ZM78,38.55a5.6,5.6,0,0,1-5.6,5.6H61.76V32.45H72.43a5.6,5.6,0,0,1,5.6,5.6Z"/><path class="cls-3" d="M66.8,76a8.46,8.46,0,0,0,8.46-8.46H1.31A8.45,8.45,0,0,0,9.76,76H57.13"/><path class="cls-4" d="M39.79,42.1l3.29,3.54a7.17,7.17,0,0,1-.39,10.13h0a7.16,7.16,0,0,1-10.13-.39l-5.43-5.86a7.17,7.17,0,0,1,.38-10.13h0a7.18,7.18,0,0,1,9-.57"/><line class="cls-3" x1="27.11" y1="39.8" x2="42.69" y2="55.77"/><path class="cls-3" d="M26.76,1.31c0,3.14-3.21,3.14-3.21,6.29s3.21,3.15,3.21,6.3-3.21,3.15-3.21,6.3"/><path class="cls-3" d="M36.29,1.31c0,3.14-3.21,3.14-3.21,6.29s3.21,3.15,3.21,6.3-3.21,3.15-3.21,6.3"/><path class="cls-3" d="M45.82,1.31c0,3.14-3.21,3.14-3.21,6.29s3.21,3.15,3.21,6.3-3.21,3.15-3.21,6.3"/></g></g></svg>