<svg xmlns="http://www.w3.org/2000/svg" viewBox="0 0 45.01 84.61"><defs><style>.cls-1{fill:#fae9c4;}.cls-2{fill:#92543e;}.cls-3{fill:#a97b56;}.cls-4{fill:#eef1eb;}.cls-5{fill:#abc8bc;}.cls-6{fill:#523434;}</style></defs><g id="Layer_2" data-name="Layer 2"><g id="Layer_1-2" data-name="Layer 1"><path class="cls-1" d="M4.12,36.65,8.36,83.32H36.65l4.24-46.67Z"/><path class="cls-2" d="M24.88,66.06A10.72,10.72,0,0,1,12.45,68.8L6.81,66.29l1.55,17H36.65l1.79-19.68L36.34,63a10.73,10.73,0,0,0-11.46,3.11Z"/><path class="cls-3" d="M3.94,34.68,6.81,66.29l5.64,2.5a10.72,10.72,0,0,0,12.43-2.73A10.73,10.73,0,0,1,36.34,63l2.09.7,2.63-29Z"/><path class="cls-4" d="M42.3,31A19.8,19.8,0,0,0,2.7,31H1.29v5.66H43.72V31Z"/><path class="cls-4" d="M7.85,77.66l.51,5.66H36.65l.51-5.66Z"/><path class="cls-5" d="M11.92,58.2l6-6,6,6-6,6Z"/><path class="cls-5" d="M22.5,48.3l6-6,6,6-6,6Z"/><rect class="cls-6" x="19.68" y="1.29" width="5.66" height="29.7"/><path d="M43.72,29.7h-.18v-.12a20.77,20.77,0,0,0-1.22-5.69,1.27,1.27,0,0,0-1.2-.82h0a1.28,1.28,0,0,0-1.2,1.72,18.45,18.45,0,0,1,1,4.77v.14H26.62V12.94l.16,0a18.43,18.43,0,0,1,6.6,3.07,1.31,1.31,0,0,0,.74.24h0A1.27,1.27,0,0,0,34.9,14a21,21,0,0,0-8.18-3.67l-.1,0v-9A1.29,1.29,0,0,0,25.33,0H19.67a1.28,1.28,0,0,0-1.28,1.29v9l-.1,0A21.12,21.12,0,0,0,1.49,29.43l0,.27H1.29A1.29,1.29,0,0,0,0,31v5.66a1.29,1.29,0,0,0,1.29,1.29H2.94v.11l.6,6.65a1.3,1.3,0,0,0,1.29,1.18h0a1.29,1.29,0,0,0,1.29-1.41l-.59-6.53H39.48v.13L37.3,61.9l-.55-.18a12,12,0,0,0-12.84,3.49,9.32,9.32,0,0,1-7.06,3.24A9.46,9.46,0,0,1,13,67.62l-5-2.2v-.08l-.71-7.82A1.28,1.28,0,0,0,6,56.35H6a1.29,1.29,0,0,0-1.29,1.4L7.07,83.43a1.28,1.28,0,0,0,1.28,1.18h28.3a1.29,1.29,0,0,0,1.29-1.18l4.13-45.49h1.65A1.29,1.29,0,0,0,45,36.65V31A1.29,1.29,0,0,0,43.72,29.7ZM37.05,64.64,35.47,82H9.54L9.26,79H31a1.29,1.29,0,0,0,0-2.58H9v-.11l-.72-7.9L11.93,70a11.9,11.9,0,0,0,13.92-3.06,9.36,9.36,0,0,1,10.08-2.74l1.13.37ZM21,2.58H24V29.7H21Zm-16.9,27A18.57,18.57,0,0,1,18.23,13l.16,0V29.7H4.05Zm38.37,5.8H2.58V32.28H42.43Z"/><path d="M24.83,57.29l-6-6a1.29,1.29,0,0,0-1.82,0l-6,6a1.29,1.29,0,0,0,0,1.83l6,6a1.27,1.27,0,0,0,1.82,0l6-6A1.3,1.3,0,0,0,24.83,57.29Zm-2.82,1-4.09,4.09L13.74,58.2l.09-.08L17.92,54l4.17,4.17Z"/><path d="M21.59,49.2l6,6a1.3,1.3,0,0,0,1.83,0l6-6a1.29,1.29,0,0,0,0-1.82l-6-6a1.33,1.33,0,0,0-1.83,0l-6,6A1.29,1.29,0,0,0,21.59,49.2Zm6.91-5.09.09.09,4.09,4.09-.09.09L28.5,52.46l-4.17-4.17Z"/></g></g></svg>