<svg xmlns="http://www.w3.org/2000/svg" viewBox="0 0 84.14 84.58"><defs><style>.cls-1{fill:#fe9738;}.cls-1,.cls-2,.cls-3,.cls-4,.cls-6,.cls-7,.cls-8{stroke:#000;stroke-width:2.61px;}.cls-1,.cls-2,.cls-3,.cls-6,.cls-7{stroke-miterlimit:10;}.cls-2{fill:#fdb97e;}.cls-3,.cls-4{fill:#82d1d1;}.cls-4,.cls-6,.cls-8{stroke-linecap:round;}.cls-4,.cls-8{stroke-linejoin:round;}.cls-5,.cls-6,.cls-7{fill:#0078c8;}.cls-8{fill:#40a340;}</style></defs><g id="Layer_2" data-name="Layer 2"><g id="Layer_1-2" data-name="Layer 1"><path class="cls-1" d="M35.88,43.1l.17.09H14.88a6.4,6.4,0,0,1-.88-.06,5.91,5.91,0,0,1,.88-11.76H29.52a3.93,3.93,0,0,1,3.93,3.93v3.56A4.89,4.89,0,0,0,35.88,43.1Z"/><path class="cls-1" d="M75.08,37.29a5.87,5.87,0,0,1-1.73,4.17,5.78,5.78,0,0,1-3.58,1.7,3.82,3.82,0,0,1-.59,0H41l.16-.09a4.89,4.89,0,0,0,2.43-4.24V34.58a3.21,3.21,0,0,1,3.21-3.21H69.18A5.91,5.91,0,0,1,75.08,37.29Z"/><rect class="cls-1" x="8.69" y="54.84" width="66.11" height="11.82" rx="5.91"/><path class="cls-2" d="M74.81,49a5.92,5.92,0,0,1-5.91,5.91H14.6a5.9,5.9,0,0,1-4.17-10.09A5.84,5.84,0,0,1,14,43.13q.3,0,.6,0H35.88l.17.09a4.85,4.85,0,0,0,2.31.58h.36A4.88,4.88,0,0,0,41,43.19l.16-.09H68.9a6.25,6.25,0,0,1,.87.06A5.92,5.92,0,0,1,74.81,49Z"/><rect class="cls-3" x="1.3" y="66.66" width="81.53" height="7.22" rx="3.61"/><path class="cls-4" d="M60.15,83.28H15a7.42,7.42,0,0,1-7.42-7.42v-2H75.83v2a7.42,7.42,0,0,1-7.42,7.42"/><ellipse class="cls-5" cx="35.7" cy="16.38" rx="6.88" ry="6.92"/><path class="cls-6" d="M40.92,20.89A6.9,6.9,0,1,1,35.7,9.47"/><path class="cls-3" d="M64.46,30.3a3.63,3.63,0,0,1-2.58,1.07H46.83a3.21,3.21,0,0,0-3.21,3.21v4.28a4.89,4.89,0,0,1-2.43,4.24l-.16.09a4.88,4.88,0,0,1-2.31.58h-.36a4.85,4.85,0,0,1-2.31-.58l-.17-.09a4.89,4.89,0,0,1-2.43-4.24V35.3a3.93,3.93,0,0,0-3.93-3.93H21.15A3.7,3.7,0,0,1,17.42,28a3.65,3.65,0,0,1,3.64-3.92H61.79a3.71,3.71,0,0,1,3.73,3.38A3.64,3.64,0,0,1,64.46,30.3Z"/><ellipse class="cls-7" cx="47.04" cy="16.38" rx="6.88" ry="6.92"/><path class="cls-8" d="M47.58,9.47S54-3.34,66.49,3.13c0,0,.09,11.13-12.33,13.73C54.4,17,54.32,10.28,47.58,9.47Z"/></g></g></svg>