<svg xmlns="http://www.w3.org/2000/svg" viewBox="0 0 73.63 84.4"><defs><style>.cls-1{fill:#b459a1;}.cls-2,.cls-4{fill:#82d1d1;}.cls-3{fill:none;}.cls-10,.cls-11,.cls-12,.cls-3,.cls-4,.cls-5,.cls-6,.cls-7,.cls-8,.cls-9{stroke:#000;stroke-width:2.26px;}.cls-10,.cls-12,.cls-3,.cls-4,.cls-5,.cls-8,.cls-9{stroke-linecap:round;}.cls-10,.cls-3,.cls-4,.cls-5,.cls-8,.cls-9{stroke-linejoin:round;}.cls-5{fill:#a0a0a0;}.cls-6{fill:#8ec13f;}.cls-11,.cls-12,.cls-6,.cls-7{stroke-miterlimit:10;}.cls-7,.cls-9{fill:#c8d952;}.cls-8{fill:#55b56a;}.cls-10{fill:#ff9017;}.cls-11,.cls-12{fill:#e1462b;}</style></defs><g id="Layer_2" data-name="Layer 2"><g id="Layer_1-2" data-name="Layer 1"><path class="cls-1" d="M15,54.16,10.51,37.41A4.21,4.21,0,0,1,11,34.07c.69-1.11,2-2.14,4.66-1.81.07,0,1.41-5.6,7-5.6,6.82,0,7.37,5.6,7.37,5.6a6.36,6.36,0,0,1,4.42,1.31,3.63,3.63,0,0,1,1,3.53L31.19,54.16Z"/><path class="cls-2" d="M1.9,54.41H72.33a0,0,0,0,1,0,0v0A23.73,23.73,0,0,1,48.6,78.15H24.09a23,23,0,0,1-23-23v0a.77.77,0,0,1,.77-.77Z"/><path class="cls-3" d="M67,69.43A23.69,23.69,0,0,1,48.6,78.15H24.09a23,23,0,0,1-23-23h0a.78.78,0,0,1,.77-.78H72.33A23.58,23.58,0,0,1,71,62.29"/><polyline class="cls-4" points="19.64 83.27 17.3 83.27 17.3 78.15 57.16 78.15 57.16 83.27 28.51 83.27"/><polygon class="cls-5" points="63.44 54.41 57.16 54.37 66.81 24.66 72.5 26.51 63.44 54.41"/><polyline class="cls-3" points="32.1 50.52 31.19 54.16 16.98 54.16"/><line class="cls-3" x1="34.89" y1="39.36" x2="32.1" y2="50.52"/><path class="cls-6" d="M38.42,54.37H33.1a5.33,5.33,0,1,1,10.65,0Z"/><path class="cls-7" d="M26.94,54.32H21.61a5.33,5.33,0,1,1,10.66,0Z"/><path class="cls-8" d="M7.25,46.24h4A4.76,4.76,0,0,1,16,51v3.33a0,0,0,0,1,0,0H12a4.76,4.76,0,0,1-4.76-4.76V46.24A0,0,0,0,1,7.25,46.24Z"/><path class="cls-8" d="M50.14,46.24h4a0,0,0,0,1,0,0v3.33a4.76,4.76,0,0,1-4.76,4.76h-4a0,0,0,0,1,0,0V51A4.76,4.76,0,0,1,50.14,46.24Z" transform="translate(99.55 100.56) rotate(-180)"/><path class="cls-9" d="M24.13,10.59a6.86,6.86,0,0,1-5.4,10.58h0l-11.85.62,5.39-10.58h0a6.86,6.86,0,0,1,11.86-.62Z"/><line class="cls-3" x1="21.31" y1="12.11" x2="11.42" y2="18.75"/><line class="cls-3" x1="18.8" y1="14.3" x2="17.41" y2="18.28"/><line class="cls-3" x1="14.55" y1="12.77" x2="18.53" y2="13.86"/><circle class="cls-10" cx="38.46" cy="6.94" r="3.01"/><circle class="cls-10" cx="57.76" cy="19.74" r="3.01"/><path class="cls-3" d="M12.76,45.79l-2.25-8.38A4.21,4.21,0,0,1,11,34.07c.69-1.11,2-2.14,4.66-1.81.07,0,1.41-5.6,7-5.6,6.82,0,7.37,5.6,7.37,5.6a7,7,0,0,1,3.64.74"/><path class="cls-8" d="M47.14,1.23S57.31-.4,57.76,9.63C57.76,9.63,47.42,11.3,47.14,1.23Z"/><path class="cls-11" d="M36.72,21.69l-.3.39a3.36,3.36,0,0,0,.12,3.55,7.68,7.68,0,0,0,5.25,3.92A52.83,52.83,0,0,0,51,30.87a.27.27,0,0,0,.25-.45A56.12,56.12,0,0,1,43.59,22,4.26,4.26,0,0,0,39.69,20,4.18,4.18,0,0,0,36.72,21.69Z"/><path class="cls-12" d="M32.92,16.45s.27,4.13,3.94,5.06"/></g></g></svg>