<svg xmlns="http://www.w3.org/2000/svg" viewBox="0 0 56.71 84.66"><defs><style>.cls-1,.cls-7{fill:#e0f4ff;}.cls-1,.cls-3,.cls-4,.cls-6,.cls-7,.cls-8{stroke:#000;stroke-width:2.49px;}.cls-1,.cls-3,.cls-4,.cls-6,.cls-8{stroke-linecap:round;}.cls-1,.cls-3,.cls-4,.cls-6{stroke-linejoin:round;}.cls-2{fill:#ff637b;}.cls-3,.cls-8{fill:none;}.cls-4{fill:#766e6e;}.cls-5,.cls-6{fill:#fed2a4;}.cls-7,.cls-8{stroke-miterlimit:10;}</style></defs><g id="Layer_2" data-name="Layer 2"><g id="Layer_1-2" data-name="Layer 1"><rect class="cls-1" x="14.95" y="34.7" width="39.54" height="6.84" rx="3.42"/><path class="cls-2" d="M19.53,41.54H48.91a4.87,4.87,0,0,1,4.44,2.81c3.13,6.74,2,23.11,1.63,32.43a6.88,6.88,0,0,1-6.87,6.63H20.87A6.88,6.88,0,0,1,14,76.7c-.31-13.2-1-27.62,2.15-33.19A3.85,3.85,0,0,1,19.53,41.54Z"/><path class="cls-3" d="M55.08,52.62l.36,5.6c.14,6.5-.28,13.55-.46,18.56a6.88,6.88,0,0,1-6.88,6.63H20.87A6.88,6.88,0,0,1,14,76.7c0-1.48-.08-3-.11-4.47-.05-1.91-.1-3.82-.13-5.7-.08-4.67-.06-9.18.22-13.06a44.62,44.62,0,0,1,.72-5.66,15.42,15.42,0,0,1,1.45-4.3,3.85,3.85,0,0,1,3.38-2H48.91a4.87,4.87,0,0,1,4.44,2.81"/><path class="cls-4" d="M6.9,60.19a6.53,6.53,0,0,0,6.7,6.35h.16c0,1.88.08,3.79.13,5.7h-.12A12.26,12.26,0,0,1,13,47.74a13.49,13.49,0,0,1,1.69.07A44.62,44.62,0,0,0,14,53.47a7,7,0,0,0-.79,0A6.52,6.52,0,0,0,6.9,60.19Z"/><path class="cls-5" d="M25.44,27.81h.67A5.91,5.91,0,0,1,25.44,27.81Z"/><path class="cls-5" d="M44.71,27.81a6.9,6.9,0,0,1-1.44,0Z"/><path class="cls-6" d="M51.07,32.6v1a1,1,0,0,1-1,1.05H18.93a1,1,0,0,1-1-1.05v-1a4.79,4.79,0,0,1,4.79-4.79h2.76a5.91,5.91,0,0,0,.67,0h-.67c-1.54-.11-5.12-1-3.76-7.44a8.21,8.21,0,0,1,6-5.36s2,6.72,9.19,6.72h7.15A3.29,3.29,0,0,1,47.84,25a3.25,3.25,0,0,1-3.13,2.86H43.27a6.9,6.9,0,0,0,1.44,0h1.57A4.79,4.79,0,0,1,51.07,32.6Z"/><line class="cls-3" x1="30.2" y1="27.81" x2="35.24" y2="27.81"/><path class="cls-4" d="M41.22,12.18l3.87-8.55a4.11,4.11,0,0,1,3.76-2.39h0a2.58,2.58,0,0,1,2.42,3.6L43.63,21.73H36.91l2.16-4.79"/><path class="cls-7" d="M31.81,57.77a52.88,52.88,0,0,1,5.49,0c4.66.23,7.47,5.73,5.12,10.08a31.62,31.62,0,0,1-4.48,6.3,4.84,4.84,0,0,1-7.4-.11,27.29,27.29,0,0,1-4.13-6.49C24.42,63.15,27.29,58,31.81,57.77Z"/><path class="cls-8" d="M40,50.47s-7,1.45-5.37,6.81"/></g></g></svg>