<svg xmlns="http://www.w3.org/2000/svg" viewBox="0 0 84.45 70.92"><defs><style>.cls-1,.cls-9{fill:#b2b6bb;}.cls-10,.cls-2,.cls-5{fill:none;}.cls-10,.cls-2,.cls-3,.cls-5,.cls-6,.cls-7,.cls-8,.cls-9{stroke:#000;stroke-width:2.5px;}.cls-10,.cls-2,.cls-9{stroke-linecap:round;}.cls-2,.cls-3,.cls-5,.cls-6,.cls-7,.cls-8{stroke-miterlimit:10;}.cls-3{fill:#6f6571;}.cls-4{fill:#faf8ed;}.cls-6{fill:#ff9017;}.cls-7{fill:#40a340;}.cls-8{fill:#c41414;}.cls-10,.cls-9{stroke-linejoin:round;}</style></defs><g id="Layer_2" data-name="Layer 2"><g id="Layer_1-2" data-name="Layer 1"><circle class="cls-1" cx="34.02" cy="35.5" r="32.77"/><path class="cls-2" d="M10.26,12.94A32.69,32.69,0,1,1,4.63,21"/><rect class="cls-3" x="25.94" y="14.35" width="15.99" height="15.99" rx="3.22"/><rect class="cls-4" x="25.94" y="9.42" width="15.99" height="14.41" rx="3.06"/><rect class="cls-5" x="25.94" y="9.42" width="15.99" height="15.99" rx="3.22"/><circle class="cls-6" cx="33.97" cy="16.98" r="3.65"/><rect class="cls-3" x="12.74" y="39.43" width="15.99" height="15.99" rx="3.22"/><rect class="cls-4" x="12.74" y="34.49" width="15.99" height="14.41" rx="3.06"/><rect class="cls-5" x="12.74" y="34.49" width="15.99" height="15.99" rx="3.22"/><circle class="cls-6" cx="20.77" cy="42.05" r="3.65"/><rect class="cls-3" x="39.42" y="39.43" width="15.99" height="15.99" rx="3.22"/><rect class="cls-4" x="39.42" y="34.49" width="15.99" height="14.41" rx="3.06"/><rect class="cls-5" x="39.42" y="34.49" width="15.99" height="15.99" rx="3.22"/><circle class="cls-6" cx="47.46" cy="42.05" r="3.65"/><circle class="cls-1" cx="73.58" cy="10.87" r="9.62"/><circle class="cls-5" cx="73.58" cy="10.87" r="9.62"/><circle class="cls-7" cx="73.58" cy="10.87" r="4.49"/><circle class="cls-1" cx="73.58" cy="60.14" r="9.62"/><path class="cls-2" d="M67.16,67.3a9.62,9.62,0,1,1,7.74,2.37"/><circle class="cls-8" cx="73.58" cy="60.14" r="4.49"/><polyline class="cls-9" points="81.57 42.35 81.57 46.05 71.34 46.05 71.34 24.5 81.57 24.5 81.57 32.22"/><line class="cls-10" x1="75.27" y1="24.5" x2="75.27" y2="45.57"/></g></g></svg>