<svg xmlns="http://www.w3.org/2000/svg" viewBox="0 0 46.05 84.69"><defs><style>.cls-1{fill:#ffde17;}.cls-2{fill:#ed1c24;}.cls-3{fill:#ff3600;}.cls-4{fill:#ff0013;}.cls-5,.cls-6{fill:none;stroke:#000;stroke-miterlimit:10;stroke-width:2.5px;}.cls-6{stroke-linecap:round;}</style></defs><g id="Layer_2" data-name="Layer 2"><g id="Layer_1-2" data-name="Layer 1"><circle class="cls-1" cx="31.6" cy="14.44" r="13.33"/><path d="M43.62,12.23a11.66,11.66,0,0,1-.2,5.26,12.39,12.39,0,0,1-11.61,9.18A12.23,12.23,0,1,1,41.67,7.51,1.13,1.13,0,0,0,42.9,8h0a1.11,1.11,0,0,0,.64-1.69A14.49,14.49,0,1,0,45.3,18.92a13.69,13.69,0,0,0,.5-7.08A1.11,1.11,0,0,0,44.41,11h0A1.09,1.09,0,0,0,43.62,12.23Z"/><circle class="cls-2" cx="31.6" cy="14.44" r="3.33"/><path d="M31.6,18.89a4.45,4.45,0,1,1,4.45-4.45A4.46,4.46,0,0,1,31.6,18.89Zm0-6.67a2.23,2.23,0,1,0,2.23,2.22A2.23,2.23,0,0,0,31.6,12.22Z"/><rect x="30.49" y="1.11" width="2.22" height="6.75" rx="1.11"/><path d="M31.6,20.48h0a1.11,1.11,0,0,1,1.11,1.11v6.19H30.49V21.59A1.11,1.11,0,0,1,31.6,20.48Z"/><rect x="18.27" y="13.33" width="7.14" height="2.22" rx="1.11"/><rect x="37.85" y="13.33" width="7.09" height="2.22" rx="1.11"/><rect x="23.28" y="3.31" width="2.22" height="7.83" rx="1.11" transform="translate(2.03 19.36) rotate(-45)"/><rect x="37.79" y="17.95" width="2.22" height="7.59" rx="1.11" transform="translate(-3.98 33.88) rotate(-45)"/><rect x="34.9" y="6.12" width="7.83" height="2.22" rx="1.11" transform="translate(6.25 29.57) rotate(-45)"/><rect x="20.78" y="20.25" width="7.83" height="2.22" rx="1.11" transform="translate(-7.87 23.72) rotate(-45)"/><rect class="cls-3" x="1.25" y="21.25" width="31.84" height="29.93"/><path class="cls-4" d="M33.09,70.8v2.51A10.13,10.13,0,0,1,23,83.44H11.38A10.13,10.13,0,0,1,1.25,73.31V53A6.7,6.7,0,0,1,8,46.26H26.39a6.7,6.7,0,0,1,6.7,6.7V63.39"/><line class="cls-4" x1="33.09" y1="63.39" x2="33.09" y2="70.8"/><line class="cls-5" x1="7.94" y1="46.26" x2="26.4" y2="46.26"/><rect class="cls-5" x="1.25" y="46.26" width="13.38" height="13.38" rx="6.69"/><rect class="cls-5" x="4.9" y="49.9" width="6.09" height="6.09" rx="3.04"/><rect class="cls-5" x="19.71" y="46.26" width="13.38" height="13.38" rx="6.69"/><rect class="cls-5" x="23.35" y="49.9" width="6.09" height="6.09" rx="3.04"/><path class="cls-5" d="M19.71,53v8.41a2.54,2.54,0,0,1-2.54,2.54h0a2.54,2.54,0,0,1-2.54-2.54V53"/><path class="cls-6" d="M33.09,67.43l-2.23,2.94a.09.09,0,0,1-.15,0,17.25,17.25,0,0,0-27.08,0,.09.09,0,0,1-.15,0L1.25,67.43"/><path class="cls-5" d="M11.46,83.44V68.72a.12.12,0,0,0-.19-.09L8.72,70.36a.14.14,0,0,1-.16,0L6.27,67.77"/><path class="cls-5" d="M22.88,83.44V68.72a.12.12,0,0,1,.19-.09l2.55,1.73a.14.14,0,0,0,.16,0l2.29-2.57"/><path class="cls-5" d="M11.46,83.44V77.22a5.7,5.7,0,0,1,5.71-5.71h0a5.7,5.7,0,0,1,5.71,5.71v6.22"/><path class="cls-5" d="M11.46,83.19h0a5.71,5.71,0,0,1,5.71-5.72h0a5.71,5.71,0,0,1,5.71,5.72h0"/><path class="cls-6" d="M33.09,67.77v5.54A10.13,10.13,0,0,1,23,83.44H11.38A10.13,10.13,0,0,1,1.25,73.31V36.22"/><path class="cls-6" d="M1.25,28.89V23.54a2.29,2.29,0,0,1,2.29-2.29H30.8a2.29,2.29,0,0,1,2.29,2.29V61"/></g></g></svg>