<svg xmlns="http://www.w3.org/2000/svg" viewBox="0 0 84.46 68.53"><defs><style>.cls-1,.cls-11,.cls-13{fill:#b2b6bb;}.cls-2,.cls-7,.cls-9{fill:none;}.cls-11,.cls-12,.cls-13,.cls-2,.cls-6,.cls-7,.cls-9{stroke:#000;stroke-width:2.5px;}.cls-11,.cls-2,.cls-6,.cls-9{stroke-linecap:round;}.cls-11,.cls-12,.cls-13,.cls-2,.cls-7{stroke-miterlimit:10;}.cls-3,.cls-6{fill:#40a340;}.cls-4{fill:#f19846;}.cls-5{fill:#03aa6f;}.cls-6,.cls-9{stroke-linejoin:round;}.cls-8{fill:#f5cf88;}.cls-10{fill:#c41414;}.cls-12{fill:#e0e0e0;}</style></defs><g id="Layer_2" data-name="Layer 2"><g id="Layer_1-2" data-name="Layer 1"><circle class="cls-1" cx="41.95" cy="38.19" r="29.09"/><path class="cls-2" d="M28,12.69a29.14,29.14,0,1,1-6.71,5.08"/><circle class="cls-3" cx="31.07" cy="21.82" r="4.06"/><circle class="cls-2" cx="31.07" cy="21.82" r="4.06"/><path class="cls-4" d="M41.83,57.65,36.42,31.39a5.23,5.23,0,0,1,5.12-6.29H44A5.23,5.23,0,0,1,49,31.62l-6.6,26.05A.31.31,0,0,1,41.83,57.65Z"/><path class="cls-2" d="M44.44,49.75l-1.76,6.94a.54.54,0,0,1-1,0l-5.15-25a5.45,5.45,0,0,1,5.34-6.56h1.86A5.45,5.45,0,0,1,49,31.9l-3.3,13"/><path class="cls-2" d="M30.91,26a3.21,3.21,0,0,1,.06.63,3.48,3.48,0,0,1-3.47,3.47"/><path class="cls-5" d="M59.17,22.37h.68a0,0,0,0,1,0,0v7.76a6,6,0,0,1-6,6h-.68a0,0,0,0,1,0,0V28.38A6,6,0,0,1,59.17,22.37Z"/><path class="cls-6" d="M59.17,22.37h.68a0,0,0,0,1,0,0v7.76a6,6,0,0,1-6,6h-.68a0,0,0,0,1,0,0V28.38A6,6,0,0,1,59.17,22.37Z"/><line class="cls-7" x1="58.57" y1="23.35" x2="54.48" y2="34.83"/><path class="cls-8" d="M30.39,33.15h0a.58.58,0,0,1,.58.58v19.8a1.35,1.35,0,0,1-1.35,1.35H27.71a6.3,6.3,0,0,1-6.3-6.3V42.12A9,9,0,0,1,30.39,33.15Z"/><path class="cls-9" d="M21.41,42.12v6.46a6.3,6.3,0,0,0,6.3,6.3h1.91A1.34,1.34,0,0,0,31,53.53V33.73a.58.58,0,0,0-.58-.58h0a9,9,0,0,0-7.7,4.34"/><path class="cls-10" d="M55.82,41.21,63,51.27a12.36,12.36,0,0,1-14.23.12Z"/><path class="cls-9" d="M57.54,43.62l4.14,5.78a2.08,2.08,0,0,1-.83,3.11A12.34,12.34,0,0,1,51,52.6a2.08,2.08,0,0,1-.9-3.1l4-5.85A2.08,2.08,0,0,1,57.54,43.62Z"/><circle cx="55.87" cy="48.84" r="1.47"/><circle cx="42.58" cy="30.76" r="1.47"/><circle cx="39.64" cy="37.49" r="1.47"/><circle cx="43.24" cy="41.73" r="1.47"/><path class="cls-2" d="M42,24.64a5.47,5.47,0,0,1-.11-1.07A5.88,5.88,0,0,1,48,17.88"/><path class="cls-11" d="M3.26,52.69V41.37H8.33v23c0,1.58-1,2.86-2.2,2.86H5.46c-1.21,0-2.2-1.28-2.2-2.86v-4"/><path class="cls-12" d="M8.17,2.8h0A.16.16,0,0,1,8.33,3V41.37a0,0,0,0,1,0,0H4.47a3.22,3.22,0,0,1-3.22-3.22V9.72A6.92,6.92,0,0,1,8.17,2.8Z"/><path class="cls-2" d="M83.21,1.49V22.9a2.68,2.68,0,0,1-2.41,2.86H75.41A2.68,2.68,0,0,1,73,22.9V1.49"/><path class="cls-13" d="M75.41,25.76H81a0,0,0,0,1,0,0V64.62a2.62,2.62,0,0,1-2.62,2.62H78a2.62,2.62,0,0,1-2.62-2.62V25.76A0,0,0,0,1,75.41,25.76Z"/><line class="cls-2" x1="78.1" y1="1.25" x2="78.1" y2="18.63"/><path class="cls-12" d="M73,18.77H83.21a0,0,0,0,1,0,0v4.45a2.54,2.54,0,0,1-2.54,2.54H75.54A2.54,2.54,0,0,1,73,23.22V18.77A0,0,0,0,1,73,18.77Z"/></g></g></svg>